<svg version="1.1" xmlns="http://www.w3.org/2000/svg" xmlns:xlink="http://www.w3.org/1999/xlink" width="414.5" height="240.41099" viewBox="0,0,414.5,240.41099"><g transform="translate(3.25,-82.29451)"><g data-paper-data="{&quot;isPaintingLayer&quot;:true}" fill-rule="nonzero" stroke-linecap="butt" stroke-linejoin="miter" stroke-miterlimit="10" stroke-dasharray="" stroke-dashoffset="0" style="mix-blend-mode: normal"><path d="M-2,321.4555v-237.91099h412v237.91099z" fill="#ffffff" stroke="#000000" stroke-width="2.5"/><text transform="translate(89.5,112.5) scale(0.5,0.5)" font-size="40" xml:space="preserve" fill="#000000" fill-rule="nonzero" stroke="none" stroke-width="1" stroke-linecap="butt" stroke-linejoin="miter" stroke-miterlimit="10" stroke-dasharray="" stroke-dashoffset="0" font-family="Sans Serif" font-weight="normal" text-anchor="start" style="mix-blend-mode: normal"><tspan x="0" dy="0">Arsecheeks on Scratch</tspan></text><text transform="translate(122.5,182.83219) scale(0.29786,0.29786)" font-size="40" xml:space="preserve" fill="#000000" fill-rule="nonzero" stroke="none" stroke-width="1" stroke-linecap="butt" stroke-linejoin="miter" stroke-miterlimit="10" stroke-dasharray="" stroke-dashoffset="0" font-family="Sans Serif" font-weight="normal" text-anchor="start" style="mix-blend-mode: normal"><tspan x="0" dy="0">Android mascot by Google</tspan></text><text transform="translate(139.5,198.8322) scale(0.29786,0.29786)" font-size="40" xml:space="preserve" fill="#000000" fill-rule="nonzero" stroke="none" stroke-width="1" stroke-linecap="butt" stroke-linejoin="miter" stroke-miterlimit="10" stroke-dasharray="" stroke-dashoffset="0" font-family="Sans Serif" font-weight="normal" text-anchor="start" style="mix-blend-mode: normal"><tspan x="0" dy="0">Arsecheeks by Calynx</tspan></text><text transform="translate(72.5,288.5) scale(0.5,0.5)" font-size="40" xml:space="preserve" fill="#000000" fill-rule="nonzero" stroke="none" stroke-width="1" stroke-linecap="butt" stroke-linejoin="miter" stroke-miterlimit="10" stroke-dasharray="" stroke-dashoffset="0" font-family="Sans Serif" font-weight="normal" text-anchor="start" style="mix-blend-mode: normal"><tspan x="0" dy="0">Made by ur mom</tspan></text><path d="M374.25,202.25c0,-1 1,-1 1,-1l0.77025,0.02675c0.97305,-0.52372 2.87326,-1.31254 3.30587,-2.40943c0.77342,-1.96103 -0.19458,-6.67798 -1.04937,-8.38756c-0.05629,-4.35088 -2.99128,-4.72975 -6.52675,-4.72975c-0.73387,0 -2.90402,-0.39807 -3.47427,-0.14935c-0.44088,0.1923 0.61668,1.31988 1.12528,1.89938c1.96084,0.36114 4.25787,1.07852 5.4337,1.93873c2.78183,2.03511 2.70714,8.25056 0.72653,10.89595c-2.52547,3.37314 -6.56096,2.91883 -10.10893,3.99354c-1.30393,0.25838 -2.58052,0.66156 -3.93207,0.39499c-0.20469,-0.04037 -0.4885,-0.15561 -0.74196,-0.30342c0.03032,0.60844 -0.02795,1.30215 -0.02829,1.33017c-0.02445,2.03758 -1.15613,3.90989 -3.27025,4.47325c-1.75841,0.46857 -4.79755,0.06378 -6.39038,-1.21392c-1.21278,1.56113 -3.32187,1.95889 -6.06913,1.21392c-0.4188,-0.11356 -0.94133,0.12742 -1.29598,-0.1226c-1.17966,-0.83163 -2.35097,-6.04693 -2.97427,-5.85065c-2.15762,0 -2.85346,-0.15967 -4.20711,-1.79289c-0.36493,-0.4403 -1.35747,-0.12627 -1.67558,-0.28323c-0.86379,-0.42622 -1.65346,-1.02567 -2.32442,-1.71677c-0.96991,-0.99902 -1.03757,-2.33471 -1.27998,-3.54692c-0.3758,-1.87928 -1.13417,-3.60634 -1.48616,-5.43043c-0.3853,-1.99669 -0.06181,-3.62362 -1,-5.5c-0.01815,-0.83459 0.20712,-2.1846 0,-3c-0.387,-1.52355 -1.60614,-2.68596 -1,-4.45951c0.69667,-2.03841 3.41566,-2.37791 5.31307,-2.75733c3.66784,-0.73346 7.38319,-1.51291 11.16018,-1.51291c5,0 10,0 15,0c0.80723,0 4.80959,0.48313 4.5,-0.5c0,0 0,-1 1,-1c1,0 1,1 1,1c-0.05959,0.60877 -0.20491,1.0731 -0.41866,1.42661l0.31309,0.62618c1.35194,2.70389 1.84832,5.2894 2.02051,8.07389c1.17524,-0.44521 2.81468,-0.12668 4.08506,-0.12668c4.17047,0 8.55079,1.05658 8.47325,6.27025c1.02516,2.05032 1.88617,7.29177 0.95063,9.61244c-0.7121,1.76642 -3.11783,2.84114 -4.69413,3.59057l-1.22975,0.02675c0,0 -1,0 -1,-1zM365.75,187.25c0,-3.84037 -0.16025,-7.08443 -1.89443,-10.55279l-0.24614,-0.49229c-0.84341,0.13182 -1.84892,0.04507 -2.85943,0.04507c-5.5,0 -11,0 -16.5,0c-4.73979,0 -10.13064,0.87788 -14.47427,2.35065c-0.12387,0.042 -0.08281,1.8002 -0.05248,1.9196c0.47642,1.87558 1.07152,2.9406 1,5c1.24737,2.49475 1.33235,5.81091 2,8.5c0.33653,1.35544 0.09361,3.93443 1.23386,5.02265c1.2372,1.18075 2.76878,0.90029 4,2c0.27795,0.24826 0.26218,0.71306 0.5,1c0.39669,0.47862 1.81082,0.20711 2.29289,0.20711c2.65785,0.26017 2.37378,2.5115 3.39443,4.55279c0.25593,0.51186 0.13356,1.31414 0.6313,1.59656c2.50827,1.4232 4.42287,0.37916 5.15266,-1.66923c-0.04049,-0.54634 0.04507,-1.08693 0.30203,-1.46488c0.01299,-0.16857 0.01958,-0.34049 0.01958,-0.51524v-1c0,-0.55228 0.44772,-1 1,-1c0.55228,0 1,0.44772 1,1v1c0,0.79799 -0.07407,1.51353 -0.21741,2.14701c0.0374,0.15189 0.08365,0.30822 0.14129,0.47031c0.32758,0.92116 3.91647,1.11393 4.84637,0.90943c3.48139,-0.76561 0.13179,-5.19664 2.20402,-6.3774c1.27465,-0.7263 1.81167,0.68456 2.75548,0.8774c0.80795,0.16508 2.34363,-0.25877 2.99026,-0.38947c2.95914,-0.86913 6.86122,-0.41916 8.96875,-3.22199c0.62248,-0.82785 0.81674,-1.91897 0.81124,-2.91529c-0.00621,-1.12586 0.2081,-2.65426 0.02675,-3.77025c-0.32833,-2.02045 -5.90822,-3.28597 -7.52675,-3.22975c-1.04421,-0.03627 -1.1921,-0.03146 -1.60557,0.94721l-0.68732,0.75989c0,0 -0.70711,0.70711 -1.41421,0c-0.70711,-0.70711 0,-1.41421 0,-1.41421l0.31268,-0.24011c0.58685,-1.07572 1.09292,-1.61466 1.91578,-1.86458c-0.02136,-0.11124 -0.02136,-0.18821 -0.02136,-0.18821z" fill="#000000" stroke="none" stroke-width="0.5"/><path d="M323.35557,145.80279c0.44721,-0.89443 1.34164,-0.44721 1.34164,-0.44721l1.1375,0.58319c3.62629,3.56729 7.28401,9.7042 11.8625,11.91681c0,0 0.31669,0.15834 0.47896,0.47503c4.23746,-1.36669 8.76918,-1.41431 13.34506,-1.26069c0.09394,-0.09854 0.17407,-0.15196 0.17407,-0.15196c2.54173,-1.65046 4.26024,-4.03113 7.09457,-5.5558l1.01291,-0.50657c0,0 0.89443,-0.44721 1.34164,0.44721c0.44721,0.89443 -0.44721,1.34164 -0.44721,1.34164l-0.98709,0.49343c-2.08229,1.11506 -3.50307,2.64168 -5.12586,4.05237c0.80158,0.03285 1.60281,0.06423 2.40234,0.08817c2.59193,1.23575 4.9288,2.62631 7.28913,4.12096c0.54715,0.34647 1.369,0.27003 1.78551,0.76594c0.22818,0.27168 0.18876,2.08288 0.18876,2.58471c0,2.64371 -0.66282,4.35867 -2.48221,5.09193c-0.03558,0.535 -0.57058,0.80249 -0.57058,0.80249c-2.49105,1.24553 -5.05413,2.06489 -7.71746,2.57882c-4.64931,0.89716 -10.19536,-1.15232 -14.5,1c-3.75333,0.05805 -7.54395,0.48756 -11.22271,0.52673c-0.98164,0.01045 -3.74982,0.41108 -4.53277,-0.14932c-1.11267,-0.7964 -0.96127,-1.76727 -0.97427,-2.85065c-0.03789,-3.15792 0.99608,-6.23996 3.91529,-7.81124c1.23421,-1.23421 2.67113,-1.49663 4,-2.5c1.22998,-0.92871 2.50174,-1.67031 3.80736,-2.2602c-4.35186,-2.65233 -7.80425,-8.04131 -11.30736,-11.61732l-0.8625,-0.41681c0,0 -0.89443,-0.44721 -0.44721,-1.34164zM359.94761,169.88476c-0.11627,-0.14572 -0.19761,-0.34957 -0.19761,-0.63476c0,-1 1,-1 1,-1h0.5c2.62763,0 3,-0.90325 3,-3.5c0,-0.47594 0.59089,-1.16072 0.18876,-1.41529c-2.35675,-1.49197 -5.31663,-2.71579 -7.92536,-4.1131c-3.57165,0.01908 -7.45971,-1.10946 -11.10322,-0.48452c-5.431,0.93153 -12.05059,2.79927 -16.07547,6.82415c-1.9149,0.86376 -3.08471,3.13965 -3.08471,5.18876c0,0.08117 -0.15358,2.07114 0.02573,2.14935c1.34852,0.58819 5.00734,-0.42567 6.35209,-0.64186c2.48479,-0.39946 5.36884,-0.03389 7.89243,0.01926c4.34864,-2.17432 9.85854,-0.03246 14.5,-1c1.70639,-0.35571 3.32788,-0.78792 4.92736,-1.39199z" fill="#000000" stroke="none" stroke-width="0.5"/><path d="M332.75,165.75c0,-0.55228 0.44772,-1 1,-1c0.55228,0 1,0.44772 1,1c0,0.55228 -0.44772,1 -1,1c-0.55228,0 -1,-0.44772 -1,-1z" fill="#000000" stroke="none" stroke-width="0.5"/><path d="M351.16337,185.93558c-0.13479,2.36465 -0.30286,5.14079 0.49657,6.89968c0.19955,0.43904 0.80291,0.59841 1.01394,1.03206c0.38712,0.79549 0.09329,1.87112 0.78323,2.67558c0.52137,0.6079 1.7012,0.21673 1.81964,-0.52265c0.20956,-1.30819 -0.02675,-2.94969 -0.02675,-4.27025c0.11748,-3.38266 -1.43032,-5.25001 -4.08663,-5.81442zM351.24909,183.92054c3.78646,0.68846 5.90539,3.43828 6.00091,7.82946c0,1.32752 0.34987,3.44389 -0.02675,4.72975c-0.65554,2.23814 -3.39531,3.14807 -5.18036,1.47735c-0.98941,-0.92604 -0.73868,-2.39804 -1.21677,-3.32442c-0.21123,-0.40929 -0.8072,-0.54351 -0.98606,-0.96794c-0.88388,-2.09749 -0.7725,-4.95223 -0.66258,-7.51137c-0.27077,0.13993 -0.70268,0.23564 -1.13458,-0.19626c-0.70711,-0.70711 0,-1.41421 0,-1.41421l1.20711,-0.79289c0,0 0,-1 1,-1c1,0 1,1 1,1c0,0.05611 -0.00031,0.11297 -0.00091,0.17054z" fill="#000000" stroke="none" stroke-width="0.5"/><text transform="translate(64,216.36548) scale(0.30832,0.30832)" font-size="40" xml:space="preserve" fill="#000000" fill-rule="nonzero" stroke="none" stroke-width="1" stroke-linecap="butt" stroke-linejoin="miter" stroke-miterlimit="10" stroke-dasharray="" stroke-dashoffset="0" font-family="Sans Serif" font-weight="normal" text-anchor="start" style="mix-blend-mode: normal"><tspan x="0" dy="0">Original Scratch Port by Noahdoesnothing</tspan></text></g></g></svg>